<svg xmlns="http://www.w3.org/2000/svg" xmlns:xlink="http://www.w3.org/1999/xlink" xmlns:serif="http://www.serif.com/" viewBox="0 0 32 40" version="1.1" xml:space="preserve" style="" x="0px" y="0px" fill-rule="evenodd" clip-rule="evenodd" stroke-linejoin="round" stroke-miterlimit="2"><g transform="matrix(1,0,0,1,-296,-74)"><path d="M312,75C303.721,75 297,81.721 297,90C297,98.279 303.721,105 312,105C320.279,105 327,98.279 327,90C327,81.721 320.279,75 312,75ZM309.098,89.252C307.085,89.609 305.354,90.326 304.134,91.251C302.758,92.293 302,93.61 302,95C302,96.39 302.758,97.707 304.134,98.749C305.91,100.095 308.768,101 312,101C315.232,101 318.09,100.095 319.866,98.749C321.242,97.707 322,96.39 322,95C322,93.61 321.242,92.293 319.866,91.251C318.646,90.326 316.915,89.609 314.902,89.252C316.749,88.228 318,86.259 318,84C318,80.689 315.311,78 312,78C308.689,78 306,80.689 306,84C306,86.259 307.251,88.228 309.098,89.252Z"/></g><text x="0" y="47" fill="#000000" font-size="5px" font-weight="bold" font-family="'Helvetica Neue', Helvetica, Arial-Unicode, Arial, Sans-serif">Created by Utari Nuraeni</text><text x="0" y="52" fill="#000000" font-size="5px" font-weight="bold" font-family="'Helvetica Neue', Helvetica, Arial-Unicode, Arial, Sans-serif">from the Noun Project</text></svg>