<svg id="visual" viewBox="0 0 900 600" width="900" height="600" xmlns="http://www.w3.org/2000/svg" xmlns:xlink="http://www.w3.org/1999/xlink" version="1.1"><path d="M0 115L13.7 118C27.3 121 54.7 127 82 126C109.3 125 136.7 117 163.8 121C191 125 218 141 245.2 133C272.3 125 299.7 93 327 87C354.3 81 381.7 101 409 113C436.3 125 463.7 129 491 119C518.3 109 545.7 85 573 79C600.3 73 627.7 85 654.8 89C682 93 709 89 736.2 95C763.3 101 790.7 117 818 116C845.3 115 872.7 97 886.3 88L900 79L900 0L886.3 0C872.7 0 845.3 0 818 0C790.7 0 763.3 0 736.2 0C709 0 682 0 654.8 0C627.7 0 600.3 0 573 0C545.7 0 518.3 0 491 0C463.7 0 436.3 0 409 0C381.7 0 354.3 0 327 0C299.7 0 272.3 0 245.2 0C218 0 191 0 163.8 0C136.7 0 109.3 0 82 0C54.7 0 27.3 0 13.7 0L0 0Z" fill="#a1b0d2"></path><path d="M0 241L13.7 244C27.3 247 54.7 253 82 255C109.3 257 136.7 255 163.8 271C191 287 218 321 245.2 332C272.3 343 299.7 331 327 318C354.3 305 381.7 291 409 286C436.3 281 463.7 285 491 286C518.3 287 545.7 285 573 296C600.3 307 627.7 331 654.8 333C682 335 709 315 736.2 311C763.3 307 790.7 319 818 327C845.3 335 872.7 339 886.3 341L900 343L900 77L886.3 86C872.7 95 845.3 113 818 114C790.7 115 763.3 99 736.2 93C709 87 682 91 654.8 87C627.7 83 600.3 71 573 77C545.7 83 518.3 107 491 117C463.7 127 436.3 123 409 111C381.7 99 354.3 79 327 85C299.7 91 272.3 123 245.2 131C218 139 191 123 163.8 119C136.7 115 109.3 123 82 124C54.7 125 27.3 119 13.7 116L0 113Z" fill="#8e9ec8"></path><path d="M0 301L13.7 306C27.3 311 54.7 321 82 335C109.3 349 136.7 367 163.8 383C191 399 218 413 245.2 411C272.3 409 299.7 391 327 382C354.3 373 381.7 373 409 371C436.3 369 463.7 365 491 370C518.3 375 545.7 389 573 407C600.3 425 627.7 447 654.8 446C682 445 709 421 736.2 410C763.3 399 790.7 401 818 409C845.3 417 872.7 431 886.3 438L900 445L900 341L886.3 339C872.7 337 845.3 333 818 325C790.7 317 763.3 305 736.2 309C709 313 682 333 654.8 331C627.7 329 600.3 305 573 294C545.7 283 518.3 285 491 284C463.7 283 436.3 279 409 284C381.7 289 354.3 303 327 316C299.7 329 272.3 341 245.2 330C218 319 191 285 163.8 269C136.7 253 109.3 255 82 253C54.7 251 27.3 245 13.7 242L0 239Z" fill="#7c8dbe"></path><path d="M0 385L13.7 389C27.3 393 54.7 401 82 407C109.3 413 136.7 417 163.8 434C191 451 218 481 245.2 479C272.3 477 299.7 443 327 437C354.3 431 381.7 453 409 453C436.3 453 463.7 431 491 435C518.3 439 545.7 469 573 485C600.3 501 627.7 503 654.8 495C682 487 709 469 736.2 469C763.3 469 790.7 487 818 493C845.3 499 872.7 493 886.3 490L900 487L900 443L886.3 436C872.7 429 845.3 415 818 407C790.7 399 763.3 397 736.2 408C709 419 682 443 654.8 444C627.7 445 600.3 423 573 405C545.7 387 518.3 373 491 368C463.7 363 436.3 367 409 369C381.7 371 354.3 371 327 380C299.7 389 272.3 407 245.2 409C218 411 191 397 163.8 381C136.7 365 109.3 347 82 333C54.7 319 27.3 309 13.7 304L0 299Z" fill="#6a79a5"></path><path d="M0 601L13.7 601C27.3 601 54.7 601 82 601C109.3 601 136.7 601 163.8 601C191 601 218 601 245.2 601C272.3 601 299.7 601 327 601C354.3 601 381.7 601 409 601C436.3 601 463.7 601 491 601C518.3 601 545.7 601 573 601C600.3 601 627.7 601 654.8 601C682 601 709 601 736.2 601C763.3 601 790.7 601 818 601C845.3 601 872.7 601 886.3 601L900 601L900 485L886.3 488C872.7 491 845.3 497 818 491C790.7 485 763.3 467 736.2 467C709 467 682 485 654.8 493C627.7 501 600.3 499 573 483C545.7 467 518.3 437 491 433C463.7 429 436.3 451 409 451C381.7 451 354.3 429 327 435C299.7 441 272.3 475 245.2 477C218 479 191 449 163.8 432C136.7 415 109.3 411 82 405C54.7 399 27.3 391 13.7 387L0 383Z" fill="#59668d"></path></svg>