<svg id="visual" viewBox="0 0 900 600" width="900" height="600" xmlns="http://www.w3.org/2000/svg" xmlns:xlink="http://www.w3.org/1999/xlink" version="1.1"><rect x="0" y="0" width="900" height="600" fill="#abb9cf"></rect><path d="M0 427L21.5 422.2C43 417.3 86 407.7 128.8 400.8C171.7 394 214.3 390 257.2 397.5C300 405 343 424 385.8 431C428.7 438 471.3 433 514.2 417.5C557 402 600 376 642.8 369C685.7 362 728.3 374 771.2 386.5C814 399 857 412 878.5 418.5L900 425L900 601L878.5 601C857 601 814 601 771.2 601C728.3 601 685.7 601 642.8 601C600 601 557 601 514.2 601C471.3 601 428.7 601 385.8 601C343 601 300 601 257.2 601C214.3 601 171.7 601 128.8 601C86 601 43 601 21.5 601L0 601Z" fill="#b78a9d"></path><path d="M0 401L21.5 410.5C43 420 86 439 128.8 438.3C171.7 437.7 214.3 417.3 257.2 406.7C300 396 343 395 385.8 396C428.7 397 471.3 400 514.2 404.2C557 408.3 600 413.7 642.8 419.2C685.7 424.7 728.3 430.3 771.2 432.3C814 434.3 857 432.7 878.5 431.8L900 431L900 601L878.5 601C857 601 814 601 771.2 601C728.3 601 685.7 601 642.8 601C600 601 557 601 514.2 601C471.3 601 428.7 601 385.8 601C343 601 300 601 257.2 601C214.3 601 171.7 601 128.8 601C86 601 43 601 21.5 601L0 601Z" fill="#886c81"></path><path d="M0 471L21.5 477.3C43 483.7 86 496.3 128.8 492.2C171.7 488 214.3 467 257.2 463.2C300 459.3 343 472.7 385.8 474.5C428.7 476.3 471.3 466.7 514.2 465.7C557 464.7 600 472.3 642.8 472.5C685.7 472.7 728.3 465.3 771.2 466.5C814 467.7 857 477.3 878.5 482.2L900 487L900 601L878.5 601C857 601 814 601 771.2 601C728.3 601 685.7 601 642.8 601C600 601 557 601 514.2 601C471.3 601 428.7 601 385.8 601C343 601 300 601 257.2 601C214.3 601 171.7 601 128.8 601C86 601 43 601 21.5 601L0 601Z" fill="#5d4f62"></path><path d="M0 526L21.5 527.3C43 528.7 86 531.3 128.8 531C171.7 530.7 214.3 527.3 257.2 522.3C300 517.3 343 510.7 385.8 507.8C428.7 505 471.3 506 514.2 502.7C557 499.3 600 491.7 642.8 487.3C685.7 483 728.3 482 771.2 491.3C814 500.7 857 520.3 878.5 530.2L900 540L900 601L878.5 601C857 601 814 601 771.2 601C728.3 601 685.7 601 642.8 601C600 601 557 601 514.2 601C471.3 601 428.7 601 385.8 601C343 601 300 601 257.2 601C214.3 601 171.7 601 128.8 601C86 601 43 601 21.5 601L0 601Z" fill="#373341"></path><path d="M0 539L21.5 542.7C43 546.3 86 553.7 128.8 552.2C171.7 550.7 214.3 540.3 257.2 535.3C300 530.3 343 530.7 385.8 533.5C428.7 536.3 471.3 541.7 514.2 547.5C557 553.3 600 559.7 642.8 558.3C685.7 557 728.3 548 771.2 545.3C814 542.7 857 546.3 878.5 548.2L900 550L900 601L878.5 601C857 601 814 601 771.2 601C728.3 601 685.7 601 642.8 601C600 601 557 601 514.2 601C471.3 601 428.7 601 385.8 601C343 601 300 601 257.2 601C214.3 601 171.7 601 128.8 601C86 601 43 601 21.5 601L0 601Z" fill="#171921"></path></svg>